<?xml version="1.0" encoding="UTF-8" standalone="no"?>
<svg
   xmlns:dc="http://purl.org/dc/elements/1.1/"
   xmlns:cc="http://creativecommons.org/ns#"
   xmlns:rdf="http://www.w3.org/1999/02/22-rdf-syntax-ns#"
   xmlns:svg="http://www.w3.org/2000/svg"
   xmlns="http://www.w3.org/2000/svg"
   xmlns:sodipodi="http://sodipodi.sourceforge.net/DTD/sodipodi-0.dtd"
   xmlns:inkscape="http://www.inkscape.org/namespaces/inkscape"
   inkscape:version="1.0 (4035a4fb49, 2020-05-01)"
   sodipodi:docname="Chess_Pieces_Sprite.svg"
   id="svg174"
   height="201"
   width="601"
   version="1.1">
  <metadata
     id="metadata180">
    <rdf:RDF>
      <cc:Work
         rdf:about="">
        <dc:format>image/svg+xml</dc:format>
        <dc:type
           rdf:resource="http://purl.org/dc/dcmitype/StillImage" />
      </cc:Work>
    </rdf:RDF>
  </metadata>
  <defs
     id="defs178">
    <filter
       height="1"
       y="-1.5335455e-32"
       width="1"
       x="-5.1118187e-33"
       id="filter3464"
       style="color-interpolation-filters:sRGB"
       inkscape:collect="always">
      <feGaussianBlur
         id="feGaussianBlur3466"
         stdDeviation="1.2779547e-30"
         inkscape:collect="always" />
    </filter>
  </defs>
  <sodipodi:namedview
     inkscape:current-layer="layer1"
     inkscape:window-maximized="1"
     inkscape:window-y="0"
     inkscape:window-x="0"
     inkscape:cy="81.240135"
     inkscape:cx="450.19821"
     inkscape:zoom="1.0398148"
     showgrid="false"
     id="namedview176"
     inkscape:window-height="690"
     inkscape:window-width="1366"
     inkscape:pageshadow="2"
     inkscape:pageopacity="0"
     guidetolerance="10"
     gridtolerance="10"
     objecttolerance="10"
     borderopacity="1"
     bordercolor="#666666"
     pagecolor="#ffffff" />
  <!-- white king //-->
  <!-- white queen //-->
  <!-- white bishop //-->
  <!-- white knight //-->
  <!-- white rook //-->
  <!-- white pawn //-->
  <!-- black king //-->
  <!-- black queen //-->
  <!-- black bishop //-->
  <!-- black knight //-->
  <!-- black rook //-->
  <!-- black pawn //-->
  <g
     transform="translate(-1.1917768,-5.0403214)"
     style="display:none;filter:url(#filter3464)"
     inkscape:label="cover"
     id="layer1"
     inkscape:groupmode="layer">
    <rect
       y="5.540328"
       x="1.6917768"
       height="100"
       width="100"
       id="rect2914"
       style="opacity:0.91;fill:#0000da;fill-opacity:0.431026;stroke:#0000ff;stroke-width:1;stroke-miterlimit:4;stroke-dasharray:none;stroke-opacity:1" />
    <rect
       style="opacity:0.91;fill:#0000da;fill-opacity:0.431026;stroke:#0000ff;stroke-width:1;stroke-miterlimit:4;stroke-dasharray:none;stroke-opacity:1"
       id="rect2914-3"
       width="100"
       height="100"
       x="101.69178"
       y="105.54032" />
    <rect
       style="opacity:0.91;fill:#0000da;fill-opacity:0.431026;stroke:#0000ff;stroke-width:1;stroke-miterlimit:4;stroke-dasharray:none;stroke-opacity:1"
       id="rect2914-6"
       width="100"
       height="100"
       x="201.69177"
       y="5.5403223" />
    <rect
       style="opacity:0.91;fill:#0000da;fill-opacity:0.431026;stroke:#0000ff;stroke-width:1;stroke-miterlimit:4;stroke-dasharray:none;stroke-opacity:1"
       id="rect2914-7"
       width="100"
       height="100"
       x="301.69177"
       y="105.54032" />
    <rect
       style="opacity:0.91;fill:#0000da;fill-opacity:0.431026;stroke:#0000ff;stroke-width:1;stroke-miterlimit:4;stroke-dasharray:none;stroke-opacity:1"
       id="rect2914-5"
       width="100"
       height="100"
       x="401.69177"
       y="5.5403223" />
    <rect
       style="opacity:0.91;fill:#0000da;fill-opacity:0.431026;stroke:#0000ff;stroke-width:1;stroke-miterlimit:4;stroke-dasharray:none;stroke-opacity:1"
       id="rect2914-35"
       width="100"
       height="100"
       x="501.69177"
       y="105.54032" />
    <rect
       style="opacity:0.91;fill:#ff0000;fill-opacity:0.584213;stroke:#0000ff;stroke-width:1;stroke-miterlimit:4;stroke-dasharray:none;stroke-opacity:1"
       id="rect2914-62"
       width="100"
       height="100"
       x="1.6917768"
       y="105.54033" />
    <rect
       y="5.540328"
       x="101.69178"
       height="100"
       width="100"
       id="rect2914-62-9"
       style="opacity:0.91;fill:#ff0000;fill-opacity:0.584213;stroke:#0000ff;stroke-width:1;stroke-miterlimit:4;stroke-dasharray:none;stroke-opacity:1" />
    <rect
       y="105.54032"
       x="201.69176"
       height="100"
       width="100"
       id="rect2914-62-1"
       style="opacity:0.91;fill:#ff0000;fill-opacity:0.584213;stroke:#0000ff;stroke-width:1;stroke-miterlimit:4;stroke-dasharray:none;stroke-opacity:1" />
    <rect
       y="5.5403223"
       x="301.69177"
       height="100"
       width="100"
       id="rect2914-62-2"
       style="opacity:0.91;fill:#ff0000;fill-opacity:0.584213;stroke:#0000ff;stroke-width:1;stroke-miterlimit:4;stroke-dasharray:none;stroke-opacity:1" />
    <rect
       y="105.54032"
       x="401.69177"
       height="100"
       width="100"
       id="rect2914-62-7"
       style="opacity:0.91;fill:#ff0000;fill-opacity:0.584213;stroke:#0000ff;stroke-width:1;stroke-miterlimit:4;stroke-dasharray:none;stroke-opacity:1" />
    <rect
       y="5.5403214"
       x="501.69177"
       height="100"
       width="100"
       id="rect2914-62-0"
       style="opacity:0.91;fill:#ff0000;fill-opacity:0.584213;stroke:#0000ff;stroke-width:1;stroke-miterlimit:4;stroke-dasharray:none;stroke-opacity:1" />
  </g>
  <g
     transform="translate(-1.1917768,-5.0403214)"
     style="display:inline"
     inkscape:label="pieces"
     id="layer2"
     inkscape:groupmode="layer">
    <g
       transform="matrix(2.4556993,0,0,2.4556993,-4.4379931,1.270744)"
       id="g16"
       style="fill:none;fill-opacity:1;fill-rule:evenodd;stroke:#000000;stroke-width:1.5;stroke-linecap:round;stroke-linejoin:round;stroke-miterlimit:4;stroke-dasharray:none;stroke-opacity:1">
      <path
         id="path2"
         style="fill:none;stroke:#000000;stroke-linejoin:miter"
         d="M 22.5,11.63 V 6" />
      <path
         id="path4"
         style="fill:none;stroke:#000000;stroke-linejoin:miter"
         d="m 20,8 h 5" />
      <path
         id="path6"
         style="fill:#ffffff;stroke:#000000;stroke-linecap:butt;stroke-linejoin:miter"
         d="m 22.5,25 c 0,0 4.5,-7.5 3,-10.5 0,0 -1,-2.5 -3,-2.5 -2,0 -3,2.5 -3,2.5 -1.5,3 3,10.5 3,10.5" />
      <path
         id="path8"
         style="fill:#ffffff;stroke:#000000"
         d="m 11.5,37 c 5.5,3.5 15.5,3.5 21,0 v -7 c 0,0 9,-4.5 6,-10.5 -4,-6.5 -13.5,-3.5 -16,4 V 27 23.5 C 19,16 9.5,13 6.5,19.5 c -3,6 5,10 5,10 z" />
      <path
         id="path10"
         style="fill:none;stroke:#000000"
         d="M 11.5,30 C 17,27 27,27 32.5,30" />
      <path
         id="path12"
         style="fill:none;stroke:#000000"
         d="m 11.5,33.5 c 5.5,-3 15.5,-3 21,0" />
      <path
         id="path14"
         style="fill:none;stroke:#000000"
         d="M 11.5,37 C 17,34 27,34 32.5,37" />
    </g>
    <g
       id="g36"
       transform="matrix(2.4556993,0,0,2.4556993,97.129195,0.91505982)"
       style="opacity:1;fill:#ffffff;fill-opacity:1;fill-rule:evenodd;stroke:#000000;stroke-width:1.5;stroke-linecap:round;stroke-linejoin:round;stroke-miterlimit:4;stroke-dasharray:none;stroke-opacity:1">
      <path
         id="path18"
         transform="translate(-1,-1)"
         d="m 9,13 a 2,2 0 1 1 -4,0 2,2 0 1 1 4,0 z" />
      <path
         id="path20"
         transform="translate(15.5,-5.5)"
         d="m 9,13 a 2,2 0 1 1 -4,0 2,2 0 1 1 4,0 z" />
      <path
         id="path22"
         transform="translate(32,-1)"
         d="m 9,13 a 2,2 0 1 1 -4,0 2,2 0 1 1 4,0 z" />
      <path
         id="path24"
         transform="translate(7,-4.5)"
         d="m 9,13 a 2,2 0 1 1 -4,0 2,2 0 1 1 4,0 z" />
      <path
         id="path26"
         transform="translate(24,-4)"
         d="m 9,13 a 2,2 0 1 1 -4,0 2,2 0 1 1 4,0 z" />
      <path
         id="path28"
         style="stroke-linecap:butt"
         d="m 9,26 c 8.5,-1.5 21,-1.5 27,0 L 38,14 31,25 V 11 l -5.5,13.5 -3,-15 -3,15 -5.5,-14 V 25 L 7,14 Z" />
      <path
         id="path30"
         style="stroke-linecap:butt"
         d="m 9,26 c 0,2 1.5,2 2.5,4 1,1.5 1,1 0.5,3.5 -1.5,1 -1.5,2.5 -1.5,2.5 -1.5,1.5 0.5,2.5 0.5,2.5 6.5,1 16.5,1 23,0 0,0 1.5,-1 0,-2.5 0,0 0.5,-1.5 -1,-2.5 -0.5,-2.5 -0.5,-2 0.5,-3.5 1,-2 2.5,-2 2.5,-4 -8.5,-1.5 -18.5,-1.5 -27,0 z" />
      <path
         id="path32"
         style="fill:none"
         d="M 11.5,30 C 15,29 30,29 33.5,30" />
      <path
         id="path34"
         style="fill:none"
         d="m 12,33.5 c 6,-1 15,-1 21,0" />
    </g>
    <g
       id="g48"
       transform="matrix(2.4556993,0,0,2.4556993,197.34658,4.4441549)"
       style="opacity:1;fill:none;fill-opacity:1;fill-rule:evenodd;stroke:#000000;stroke-width:1.5;stroke-linecap:round;stroke-linejoin:round;stroke-miterlimit:4;stroke-dasharray:none;stroke-opacity:1">
      <g
         id="g44"
         style="fill:#ffffff;stroke:#000000;stroke-linecap:butt">
        <path
           id="path38"
           d="m 9,36 c 3.39,-0.97 10.11,0.43 13.5,-2 3.39,2.43 10.11,1.03 13.5,2 0,0 1.65,0.54 3,2 -0.68,0.97 -1.65,0.99 -3,0.5 -3.39,-0.97 -10.11,0.46 -13.5,-1 C 19.11,38.96 12.39,37.53 9,38.5 7.646,38.99 6.677,38.97 6,38 7.354,36.06 9,36 9,36 Z" />
        <path
           id="path40"
           d="m 15,32 c 2.5,2.5 12.5,2.5 15,0 0.5,-1.5 0,-2 0,-2 0,-2.5 -2.5,-4 -2.5,-4 5.5,-1.5 6,-11.5 -5,-15.5 -11,4 -10.5,14 -5,15.5 0,0 -2.5,1.5 -2.5,4 0,0 -0.5,0.5 0,2 z" />
        <path
           id="path42"
           d="m 25,8 a 2.5,2.5 0 1 1 -5,0 2.5,2.5 0 1 1 5,0 z" />
      </g>
      <path
         id="path46"
         style="fill:none;stroke:#000000;stroke-linejoin:miter"
         d="m 17.5,26 h 10 M 15,30 H 30 M 22.5,15.5 v 5 M 20,18 h 5" />
    </g>
    <g
       id="g58"
       transform="matrix(2.4556993,0,0,2.4556993,298.04399,0.48540188)"
       style="opacity:1;fill:none;fill-opacity:1;fill-rule:evenodd;stroke:#000000;stroke-width:1.5;stroke-linecap:round;stroke-linejoin:round;stroke-miterlimit:4;stroke-dasharray:none;stroke-opacity:1">
      <path
         id="path50"
         style="fill:#ffffff;stroke:#000000"
         d="m 22,10 c 10.5,1 16.5,8 16,29 H 15 c 0,-9 10,-6.5 8,-21" />
      <path
         id="path52"
         style="fill:#ffffff;stroke:#000000"
         d="m 24,18 c 0.38,2.91 -5.55,7.37 -8,9 -3,2 -2.82,4.34 -5,4 -1.042,-0.94 1.41,-3.04 0,-3 -1,0 0.19,1.23 -1,2 -1,0 -4.003,1 -4,-4 0,-2 6,-12 6,-12 0,0 1.89,-1.9 2,-3.5 -0.73,-0.994 -0.5,-2 -0.5,-3 1,-1 3,2.5 3,2.5 h 2 c 0,0 0.78,-1.992 2.5,-3 1,0 1,3 1,3" />
      <path
         id="path54"
         style="fill:#000000;stroke:#000000"
         d="m 9.5,25.5 a 0.5,0.5 0 1 1 -1,0 0.5,0.5 0 1 1 1,0 z" />
      <path
         id="path56"
         style="fill:#000000;stroke:#000000"
         transform="matrix(0.866,0.5,-0.5,0.866,9.693,-5.173)"
         d="m 15,15.5 a 0.5,1.5 0 1 1 -1,0 0.5,1.5 0 1 1 1,0 z" />
    </g>
    <g
       id="g74"
       transform="matrix(2.4556993,0,0,2.4556993,397.37332,0.88484357)"
       style="opacity:1;fill:#ffffff;fill-opacity:1;fill-rule:evenodd;stroke:#000000;stroke-width:1.5;stroke-linecap:round;stroke-linejoin:round;stroke-miterlimit:4;stroke-dasharray:none;stroke-opacity:1">
      <path
         id="path60"
         style="stroke-linecap:butt"
         d="M 9,39 H 36 V 36 H 9 Z" />
      <path
         id="path62"
         style="stroke-linecap:butt"
         d="m 12,36 v -4 h 21 v 4 z" />
      <path
         id="path64"
         style="stroke-linecap:butt"
         d="M 11,14 V 9 h 4 v 2 h 5 V 9 h 5 v 2 h 5 V 9 h 4 v 5" />
      <path
         id="path66"
         d="m 34,14 -3,3 H 14 l -3,-3" />
      <path
         id="path68"
         style="stroke-linecap:butt;stroke-linejoin:miter"
         d="M 31,17 V 29.5 H 14 V 17" />
      <path
         id="path70"
         d="m 31,29.5 1.5,2.5 h -20 L 14,29.5" />
      <path
         id="path72"
         style="fill:none;stroke:#000000;stroke-linejoin:miter"
         d="M 11,14 H 34" />
    </g>
    <g
       id="g78"
       transform="matrix(2.4556993,0,0,2.4556993,500.34789,-1.3147784)">
      <path
         id="path76"
         style="opacity:1;fill:#ffffff;fill-opacity:1;fill-rule:nonzero;stroke:#000000;stroke-width:1.5;stroke-linecap:round;stroke-linejoin:miter;stroke-miterlimit:4;stroke-dasharray:none;stroke-opacity:1"
         d="m 22,9 c -2.21,0 -4,1.79 -4,4 0,0.89 0.29,1.71 0.78,2.38 -1.95,1.12 -3.28,3.21 -3.28,5.62 0,2.03 0.94,3.84 2.41,5.03 -3,1.06 -7.41,5.55 -7.41,13.47 h 23 c 0,-7.92 -4.41,-12.41 -7.41,-13.47 1.47,-1.19 2.41,-3 2.41,-5.03 0,-2.41 -1.33,-4.5 -3.28,-5.62 C 25.71,14.71 26,13.89 26,13 26,10.79 24.21,9 22,9 Z" />
    </g>
    <g
       id="g92"
       transform="matrix(2.4556993,0,0,2.4556993,-6.3984377,100.08907)"
       style="fill:none;fill-opacity:1;fill-rule:evenodd;stroke:#000000;stroke-width:1.5;stroke-linecap:round;stroke-linejoin:round;stroke-miterlimit:4;stroke-dasharray:none;stroke-opacity:1">
      <path
         id="path80"
         style="fill:none;stroke:#000000;stroke-linejoin:miter"
         d="M 22.5,11.63 V 6" />
      <path
         id="path82"
         style="fill:#000000;fill-opacity:1;stroke-linecap:butt;stroke-linejoin:miter"
         d="m 22.5,25 c 0,0 4.5,-7.5 3,-10.5 0,0 -1,-2.5 -3,-2.5 -2,0 -3,2.5 -3,2.5 -1.5,3 3,10.5 3,10.5" />
      <path
         id="path84"
         style="fill:#000000;stroke:#000000"
         d="m 11.5,37 c 5.5,3.5 15.5,3.5 21,0 v -7 c 0,0 9,-4.5 6,-10.5 -4,-6.5 -13.5,-3.5 -16,4 V 27 23.5 C 19,16 9.5,13 6.5,19.5 c -3,6 5,10 5,10 z" />
      <path
         id="path86"
         style="fill:none;stroke:#000000;stroke-linejoin:miter"
         d="m 20,8 h 5" />
      <path
         id="path88"
         style="fill:none;stroke:#ffffff"
         d="m 32,29.5 c 0,0 8.5,-4 6.03,-9.65 C 34.15,14 25,18 22.5,24.5 l 0.01,2.1 -0.01,-2.1 C 20,18 9.906,14 6.997,19.85 c -2.497,5.65 4.853,9 4.853,9" />
      <path
         id="path90"
         style="fill:none;stroke:#ffffff"
         d="m 11.5,30 c 5.5,-3 15.5,-3 21,0 m -21,3.5 c 5.5,-3 15.5,-3 21,0 m -21,3.5 c 5.5,-3 15.5,-3 21,0" />
    </g>
    <g
       id="g120"
       transform="matrix(2.4556993,0,0,2.4556993,97.367604,101.22768)"
       style="opacity:1;fill-opacity:1;fill-rule:evenodd;stroke:#000000;stroke-width:1.5;stroke-linecap:round;stroke-linejoin:round;stroke-miterlimit:4;stroke-dasharray:none;stroke-opacity:1">
      <g
         id="g104"
         style="fill:#000000;stroke:none">
        <circle
           id="circle94"
           r="2.75"
           cy="12"
           cx="6" />
        <circle
           id="circle96"
           r="2.75"
           cy="9"
           cx="14" />
        <circle
           id="circle98"
           r="2.75"
           cy="8"
           cx="22.5" />
        <circle
           id="circle100"
           r="2.75"
           cy="9"
           cx="31" />
        <circle
           id="circle102"
           r="2.75"
           cy="12"
           cx="39" />
      </g>
      <path
         id="path106"
         style="stroke:#000000;stroke-linecap:butt"
         d="m 9,26 c 8.5,-1.5 21,-1.5 27,0 L 38.5,13.5 31,25 30.7,10.9 25.5,24.5 22.5,10 19.5,24.5 14.3,10.9 14,25 6.5,13.5 Z" />
      <path
         id="path108"
         style="stroke-linecap:butt"
         d="m 9,26 c 0,2 1.5,2 2.5,4 1,1.5 1,1 0.5,3.5 -1.5,1 -1.5,2.5 -1.5,2.5 -1.5,1.5 0.5,2.5 0.5,2.5 6.5,1 16.5,1 23,0 0,0 1.5,-1 0,-2.5 0,0 0.5,-1.5 -1,-2.5 -0.5,-2.5 -0.5,-2 0.5,-3.5 1,-2 2.5,-2 2.5,-4 -8.5,-1.5 -18.5,-1.5 -27,0 z" />
      <path
         id="path110"
         style="fill:none;stroke:#000000;stroke-linecap:butt"
         d="m 11,38.5 a 35,35 1 0 0 23,0" />
      <path
         id="path112"
         style="fill:none;stroke:#ffffff"
         d="m 11,29 a 35,35 1 0 1 23,0" />
      <path
         id="path114"
         style="fill:none;stroke:#ffffff"
         d="m 12.5,31.5 h 20" />
      <path
         id="path116"
         style="fill:none;stroke:#ffffff"
         d="m 11.5,34.5 a 35,35 1 0 0 22,0" />
      <path
         id="path118"
         style="fill:none;stroke:#ffffff"
         d="m 10.5,37.5 a 35,35 1 0 0 24,0" />
    </g>
    <g
       id="g132"
       transform="matrix(2.4556993,0,0,2.4556993,198.41589,103.27913)"
       style="opacity:1;fill:none;fill-opacity:1;fill-rule:evenodd;stroke:#000000;stroke-width:1.5;stroke-linecap:round;stroke-linejoin:round;stroke-miterlimit:4;stroke-dasharray:none;stroke-opacity:1">
      <g
         id="g128"
         style="fill:#000000;stroke:#000000;stroke-linecap:butt">
        <path
           id="path122"
           d="m 9,36 c 3.39,-0.97 10.11,0.43 13.5,-2 3.39,2.43 10.11,1.03 13.5,2 0,0 1.65,0.54 3,2 -0.68,0.97 -1.65,0.99 -3,0.5 -3.39,-0.97 -10.11,0.46 -13.5,-1 C 19.11,38.96 12.39,37.53 9,38.5 7.646,38.99 6.677,38.97 6,38 7.354,36.06 9,36 9,36 Z" />
        <path
           id="path124"
           d="m 15,32 c 2.5,2.5 12.5,2.5 15,0 0.5,-1.5 0,-2 0,-2 0,-2.5 -2.5,-4 -2.5,-4 5.5,-1.5 6,-11.5 -5,-15.5 -11,4 -10.5,14 -5,15.5 0,0 -2.5,1.5 -2.5,4 0,0 -0.5,0.5 0,2 z" />
        <path
           id="path126"
           d="m 25,8 a 2.5,2.5 0 1 1 -5,0 2.5,2.5 0 1 1 5,0 z" />
      </g>
      <path
         id="path130"
         style="fill:none;stroke:#ffffff;stroke-linejoin:miter"
         d="m 17.5,26 h 10 M 15,30 H 30 M 22.5,15.5 v 5 M 20,18 h 5" />
    </g>
    <g
       id="g144"
       transform="matrix(2.4556993,0,0,2.4556993,298.72987,99.794837)"
       style="opacity:1;fill:none;fill-opacity:1;fill-rule:evenodd;stroke:#000000;stroke-width:1.5;stroke-linecap:round;stroke-linejoin:round;stroke-miterlimit:4;stroke-dasharray:none;stroke-opacity:1">
      <path
         id="path134"
         style="fill:#000000;stroke:#000000"
         d="m 22,10 c 10.5,1 16.5,8 16,29 H 15 c 0,-9 10,-6.5 8,-21" />
      <path
         id="path136"
         style="fill:#000000;stroke:#000000"
         d="m 24,18 c 0.38,2.91 -5.55,7.37 -8,9 -3,2 -2.82,4.34 -5,4 -1.042,-0.94 1.41,-3.04 0,-3 -1,0 0.19,1.23 -1,2 -1,0 -4.003,1 -4,-4 0,-2 6,-12 6,-12 0,0 1.89,-1.9 2,-3.5 -0.73,-0.994 -0.5,-2 -0.5,-3 1,-1 3,2.5 3,2.5 h 2 c 0,0 0.78,-1.992 2.5,-3 1,0 1,3 1,3" />
      <path
         id="path138"
         style="fill:#ffffff;stroke:#ffffff"
         d="m 9.5,25.5 a 0.5,0.5 0 1 1 -1,0 0.5,0.5 0 1 1 1,0 z" />
      <path
         id="path140"
         style="fill:#ffffff;stroke:#ffffff"
         transform="matrix(0.866,0.5,-0.5,0.866,9.693,-5.173)"
         d="m 15,15.5 a 0.5,1.5 0 1 1 -1,0 0.5,1.5 0 1 1 1,0 z" />
      <path
         id="path142"
         style="fill:#ffffff;stroke:none"
         d="M 24.55,10.4 24.1,11.85 24.6,12 c 3.15,1 5.65,2.49 7.9,6.75 2.25,4.26 3.25,10.31 2.75,20.25 l -0.05,0.5 h 2.25 L 37.5,39 C 38,28.94 36.62,22.15 34.25,17.66 31.88,13.17 28.46,11.02 25.06,10.5 Z" />
    </g>
    <g
       id="g168"
       transform="matrix(2.4556993,0,0,2.4556993,398.02189,99.492239)"
       style="opacity:1;fill-opacity:1;fill-rule:evenodd;stroke:#000000;stroke-width:1.5;stroke-linecap:round;stroke-linejoin:round;stroke-miterlimit:4;stroke-dasharray:none;stroke-opacity:1">
      <path
         id="path146"
         style="stroke-linecap:butt"
         d="M 9,39 H 36 V 36 H 9 Z" />
      <path
         id="path148"
         style="stroke-linecap:butt"
         d="M 12.5,32 14,29.5 h 17 l 1.5,2.5 z" />
      <path
         id="path150"
         style="stroke-linecap:butt"
         d="m 12,36 v -4 h 21 v 4 z" />
      <path
         id="path152"
         style="stroke-linecap:butt;stroke-linejoin:miter"
         d="m 14,29.5 v -13 h 17 v 13 z" />
      <path
         id="path154"
         style="stroke-linecap:butt"
         d="M 14,16.5 11,14 h 23 l -3,2.5 z" />
      <path
         id="path156"
         style="stroke-linecap:butt"
         d="M 11,14 V 9 h 4 v 2 h 5 V 9 h 5 v 2 h 5 V 9 h 4 v 5 z" />
      <path
         id="path158"
         style="fill:none;stroke:#ffffff;stroke-width:1;stroke-linejoin:miter"
         d="m 12,35.5 h 21 v 0" />
      <path
         id="path160"
         style="fill:none;stroke:#ffffff;stroke-width:1;stroke-linejoin:miter"
         d="M 13,31.5 H 32" />
      <path
         id="path162"
         style="fill:none;stroke:#ffffff;stroke-width:1;stroke-linejoin:miter"
         d="M 14,29.5 H 31" />
      <path
         id="path164"
         style="fill:none;stroke:#ffffff;stroke-width:1;stroke-linejoin:miter"
         d="M 14,16.5 H 31" />
      <path
         id="path166"
         style="fill:none;stroke:#ffffff;stroke-width:1;stroke-linejoin:miter"
         d="M 11,14 H 34" />
    </g>
    <g
       id="g172"
       transform="matrix(2.4556993,0,0,2.4556993,502.33548,99.192007)">
      <path
         id="path170"
         style="opacity:1;fill:#000000;fill-opacity:1;fill-rule:nonzero;stroke:#000000;stroke-width:1.5;stroke-linecap:round;stroke-linejoin:miter;stroke-miterlimit:4;stroke-dasharray:none;stroke-opacity:1"
         d="m 22,9 c -2.21,0 -4,1.79 -4,4 0,0.89 0.29,1.71 0.78,2.38 -1.95,1.12 -3.28,3.21 -3.28,5.62 0,2.03 0.94,3.84 2.41,5.03 -3,1.06 -7.41,5.55 -7.41,13.47 h 23 c 0,-7.92 -4.41,-12.41 -7.41,-13.47 1.47,-1.19 2.41,-3 2.41,-5.03 0,-2.41 -1.33,-4.5 -3.28,-5.62 C 25.71,14.71 26,13.89 26,13 26,10.79 24.21,9 22,9 Z" />
    </g>
  </g>
</svg>
